<svg width="382" height="253" viewBox="0 0 382 253" fill="none" xmlns="http://www.w3.org/2000/svg">
<path d="M155.082 37.623V91.8711C155.082 93.5638 155.896 94.7031 157.523 95.2891C159.184 95.8424 160.014 96.7376 160.014 97.9746C160.014 99.3092 159.265 99.9766 157.768 99.9766H141.215C139.717 99.9766 138.969 99.3092 138.969 97.9746C138.969 96.7376 139.783 95.8424 141.41 95.2891C143.038 94.7031 143.852 93.5638 143.852 91.8711V44.9961L117.729 101.441H114.164L88.334 47.1934V91.8711C88.334 93.5638 89.1478 94.7031 90.7754 95.2891C92.403 95.8424 93.2168 96.7376 93.2168 97.9746C93.2168 99.3092 92.4681 99.9766 90.9707 99.9766H78.5684C77.071 99.9766 76.3223 99.3092 76.3223 97.9746C76.3223 96.7376 77.1361 95.8424 78.7637 95.2891C80.3913 94.7031 81.2051 93.5638 81.2051 91.8711V37.623C81.2051 35.9629 80.3913 34.8398 78.7637 34.2539C77.1361 33.668 76.3223 32.7402 76.3223 31.4707C76.3223 30.1361 77.071 29.4688 78.5684 29.4688H92.3867L118.266 82.4961L143.314 29.4688H157.768C159.265 29.4688 160.014 30.1361 160.014 31.4707C160.014 32.7402 159.184 33.668 157.523 34.2539C155.896 34.8398 155.082 35.9629 155.082 37.623ZM197.859 96.2656L186.141 100.562C184.936 100.986 183.911 101.197 183.064 101.197H181.014C176.001 100.937 171.736 98.9512 168.221 95.2402C164.673 91.4642 162.654 86.8906 162.166 81.5195C162.036 80.1523 161.971 78.8177 161.971 77.5156C161.971 75.7904 162.085 74.1139 162.312 72.4863C162.736 69.5892 163.859 66.7083 165.682 63.8438C166.561 62.3138 168.09 60.7188 170.271 59.0586C171.085 58.5052 171.98 58.0169 172.957 57.5938C175.594 56.6172 178.214 55.6406 180.818 54.6641C183.455 53.6875 186.092 52.7109 188.729 51.7344C189.445 51.474 190.128 51.3438 190.779 51.3438H191.072C193.286 51.4414 195.955 51.9948 199.08 53.0039C199.406 53.1016 199.601 53.1829 199.666 53.248C200.317 53.5085 201.147 53.8014 202.156 54.127C202.417 54.2246 202.661 54.2734 202.889 54.2734C203.084 54.2734 203.247 54.2246 203.377 54.127C203.995 53.6061 204.419 53.1829 204.646 52.8574C205.07 52.304 205.639 52.0273 206.355 52.0273C206.714 52.0273 207.039 52.0924 207.332 52.2227C208.536 52.6458 209.139 53.2643 209.139 54.0781V91.8711C209.139 93.5638 209.952 94.7031 211.58 95.2891C213.208 95.8424 214.021 96.7376 214.021 97.9746C214.021 99.3092 213.273 99.9766 211.775 99.9766H199.91C198.543 99.9766 197.859 99.4395 197.859 98.3652V96.2656ZM197.859 61.793C196.818 60.8164 195.271 59.8398 193.221 58.8633C191.202 57.8867 189.445 57.3659 187.947 57.3008H187.801C187.345 57.3008 186.857 57.3984 186.336 57.5938C185.164 58.0169 183.992 58.4564 182.82 58.9121C181.681 59.3353 180.525 59.7585 179.354 60.1816C178.735 60.4421 178.247 60.7676 177.889 61.1582C176.001 63.1764 174.731 65.6341 174.08 68.5312C173.527 70.8099 173.25 73.056 173.25 75.2695C173.25 75.9531 173.283 76.6693 173.348 77.418C173.706 81.9427 174.926 85.6048 177.01 88.4043C179.028 91.2363 181.535 93.0592 184.529 93.873C185.636 94.1986 186.759 94.3613 187.898 94.3613C188.257 94.3613 188.615 94.3451 188.973 94.3125C189.559 94.2474 190.291 94.0684 191.17 93.7754C191.919 93.515 193.09 93.0918 194.686 92.5059C196.281 91.8874 197.339 91.4805 197.859 91.2852V61.793ZM231.506 55.7871C232.157 55.5592 233.166 55.1849 234.533 54.6641C235.9 54.1432 237.202 53.6712 238.439 53.248C241.564 52.1413 244.787 51.4251 248.107 51.0996C248.563 51.0671 249.019 51.0508 249.475 51.0508C252.535 51.0508 255.415 52.0762 258.117 54.127C262.316 57.3496 264.416 64.0716 264.416 74.293V91.8711C264.416 93.5638 265.23 94.7031 266.857 95.2891C268.485 95.8424 269.299 96.7376 269.299 97.9746C269.299 99.3092 268.566 99.9766 267.102 99.9766H255.236C253.869 99.9766 253.186 99.4395 253.186 98.3652V74.293C253.186 67.3919 251.802 62.5905 249.035 59.8887C247.375 58.2611 245.373 57.4473 243.029 57.4473C241.63 57.4473 240.083 57.724 238.391 58.2773C237.674 58.5378 236.763 58.8796 235.656 59.3027C234.582 59.6934 233.638 60.0514 232.824 60.377C232.076 60.6374 231.636 60.8001 231.506 60.8652V91.8711C231.506 93.5638 232.32 94.7031 233.947 95.2891C235.575 95.8424 236.389 96.7376 236.389 97.9746C236.389 99.3092 235.656 99.9766 234.191 99.9766H217.639C216.141 99.9766 215.393 99.3092 215.393 97.9746C215.393 96.7376 216.206 95.8424 217.834 95.2891C219.462 94.7031 220.275 93.5638 220.275 91.8711V60.6211C220.275 58.9935 219.462 57.8867 217.834 57.3008C216.206 56.7148 215.393 55.7871 215.393 54.5176C215.393 53.1829 216.125 52.5156 217.59 52.5156C219.608 52.418 221.626 52.0924 223.645 51.5391C225.695 50.9857 228.316 50.1719 231.506 49.0977V55.7871ZM285.318 59.4004L296.939 87.8184L306.998 63.6973C307.258 63.1113 307.389 62.5417 307.389 61.9883C307.389 61.0443 306.998 60.1165 306.217 59.2051L304.068 56.6172L309.146 52.6621C309.537 52.2389 310.009 52.0273 310.562 52.0273C311.181 52.0273 311.751 52.2878 312.271 52.8086L315.006 55.5918C315.722 56.3405 316.08 57.252 316.08 58.3262C316.08 58.8796 315.966 59.5143 315.738 60.2305C315.217 61.793 314.436 63.6322 313.395 65.748L298.404 99.2441C298.209 99.6348 297.997 99.9766 297.77 100.27C297.346 100.693 296.842 100.904 296.256 100.904H292.154C291.438 100.904 290.917 100.66 290.592 100.172C290.429 100.009 290.266 99.6836 290.104 99.1953C289.941 98.7396 289.827 98.4303 289.762 98.2676L273.795 60.2305C273.339 59.1888 272.672 58.375 271.793 57.7891C271.207 57.3984 270.556 57.0566 269.84 56.7637C269.156 56.4382 268.603 56.1289 268.18 55.8359C267.822 55.6081 267.496 55.2337 267.203 54.7129C267.138 54.4525 267.105 54.2409 267.105 54.0781C267.105 53.9154 267.138 53.7038 267.203 53.4434C267.561 52.8574 268.131 52.5645 268.912 52.5645H284.928C285.416 52.5645 285.937 52.7272 286.49 53.0527C286.946 53.4108 287.255 53.7689 287.418 54.127C287.483 54.3548 287.516 54.5339 287.516 54.6641C287.516 55.1849 287.255 55.6895 286.734 56.1777C285.758 57.0566 285.237 57.5938 285.172 57.7891C285.107 57.9844 285.074 58.2122 285.074 58.4727C285.074 58.7656 285.156 59.0749 285.318 59.4004ZM328.145 29.6641C332.507 29.6641 334.688 31.7799 334.688 36.0117C334.688 40.276 332.507 42.4082 328.145 42.4082C323.783 42.4082 321.602 40.276 321.602 36.0117C321.602 31.7799 323.783 29.6641 328.145 29.6641ZM333.76 91.8711C333.76 93.5638 334.574 94.7031 336.201 95.2891C337.829 95.8424 338.643 96.7376 338.643 97.9746C338.643 99.3092 337.91 99.9766 336.445 99.9766H319.893C318.395 99.9766 317.646 99.3092 317.646 97.9746C317.646 96.7376 318.46 95.8424 320.088 95.2891C321.715 94.7031 322.529 93.5638 322.529 91.8711V60.6211C322.529 58.9935 321.715 57.8867 320.088 57.3008C318.46 56.7148 317.646 55.7871 317.646 54.5176C317.646 53.1829 318.379 52.5156 319.844 52.5156C321.862 52.418 323.88 52.0924 325.898 51.5391C327.949 50.9857 330.57 50.1719 333.76 49.0977V91.8711Z" fill="#F5F5F5"/>
<path d="M11.0303 202.848C10.1025 203.629 8.73535 204.093 6.92871 204.239C4.4873 204.532 3.2666 205.533 3.2666 207.242V207.535C3.55957 209.488 4.68262 210.465 6.63574 210.465H26.1914C27.3145 210.465 29.4141 208.438 32.4902 204.386C35.5664 200.333 39.0088 195.67 42.8174 190.396C46.626 185.123 50.5322 179.728 54.5361 174.21C58.4912 168.692 61.6406 164.493 63.9844 161.612H72.8467V198.307C72.8467 200.846 71.626 202.555 69.1846 203.434C66.7432 204.264 65.5225 205.606 65.5225 207.462C65.5225 209.464 66.6211 210.465 68.8184 210.465H93.6475C95.8936 210.465 97.0166 209.464 97.0166 207.462C97.0166 205.606 95.7959 204.264 93.3545 203.434C90.9131 202.555 89.6924 200.846 89.6924 198.307V116.935C89.6924 114.444 90.9131 112.76 93.3545 111.881C95.7959 111.002 97.0166 109.61 97.0166 107.706C97.0166 105.704 95.8936 104.703 93.6475 104.703H50.4346C45.1611 104.703 39.6436 105.655 33.8818 107.56C28.0713 109.415 23.5547 113.102 20.332 118.619C17.8906 122.965 16.6699 128.141 16.6699 134.146C16.7676 139.908 18.4277 145.108 21.6504 149.747C24.2871 153.458 27.9248 156.29 32.5635 158.243C37.1533 160.196 40.5469 161.222 42.7441 161.319L11.0303 202.848ZM72.8467 113.712V153.556H57.6855C54.5117 153.556 51.3379 153.116 48.1641 152.237C44.9414 151.31 42.1826 149.698 39.8877 147.403C36.2744 143.937 34.4678 139.273 34.4678 133.414C34.4678 127.799 36.3477 123.136 40.1074 119.425C44.0625 115.616 49.4336 113.712 56.2207 113.712H72.8467Z" fill="#F5F5F5"/>
<path d="M145.543 169.898L127.965 176.344C126.158 176.979 124.62 177.296 123.351 177.296H120.274C112.755 176.905 106.358 173.927 101.085 168.36C95.7627 162.696 92.7354 155.836 92.0029 147.779C91.8076 145.729 91.71 143.727 91.71 141.773C91.71 139.186 91.8809 136.671 92.2227 134.229C92.8574 129.884 94.542 125.562 97.2764 121.266C98.5947 118.971 100.89 116.578 104.161 114.088C105.382 113.258 106.725 112.525 108.189 111.891C112.145 110.426 116.075 108.961 119.981 107.496C123.937 106.031 127.892 104.566 131.847 103.102C132.921 102.711 133.946 102.516 134.923 102.516H135.362C138.683 102.662 142.687 103.492 147.374 105.006C147.862 105.152 148.155 105.274 148.253 105.372C149.229 105.763 150.475 106.202 151.988 106.69C152.379 106.837 152.745 106.91 153.087 106.91C153.38 106.91 153.624 106.837 153.819 106.69C154.747 105.909 155.382 105.274 155.724 104.786C156.358 103.956 157.213 103.541 158.287 103.541C158.824 103.541 159.312 103.639 159.752 103.834C161.559 104.469 162.462 105.396 162.462 106.617V163.307C162.462 165.846 163.683 167.555 166.124 168.434C168.565 169.264 169.786 170.606 169.786 172.462C169.786 174.464 168.663 175.465 166.417 175.465H148.619C146.568 175.465 145.543 174.659 145.543 173.048V169.898ZM145.543 118.189C143.98 116.725 141.661 115.26 138.585 113.795C135.558 112.33 132.921 111.549 130.675 111.451H130.455C129.771 111.451 129.039 111.598 128.258 111.891C126.5 112.525 124.742 113.185 122.984 113.868C121.275 114.503 119.542 115.138 117.784 115.772C116.856 116.163 116.124 116.651 115.587 117.237C112.755 120.265 110.851 123.951 109.874 128.297C109.044 131.715 108.629 135.084 108.629 138.404C108.629 139.43 108.678 140.504 108.775 141.627C109.312 148.414 111.144 153.907 114.269 158.106C117.296 162.354 121.056 165.089 125.548 166.31C127.208 166.798 128.893 167.042 130.602 167.042C131.139 167.042 131.676 167.018 132.213 166.969C133.092 166.871 134.19 166.603 135.509 166.163C136.632 165.772 138.39 165.138 140.782 164.259C143.175 163.331 144.762 162.721 145.543 162.428V118.189Z" fill="#F5F5F5"/>
<path d="M205.334 105.516C215.441 105.906 223.938 109.739 230.822 117.015C237.707 124.29 241.223 132.933 241.369 142.942V143.382C241.369 153.489 237.78 162.059 230.603 169.09C223.229 176.268 214.196 180.003 203.503 180.296H202.331C192.37 180.296 183.801 176.634 176.623 169.31C169.348 161.937 165.71 153.221 165.71 143.162V142.942C165.759 131.907 169.934 122.605 178.234 115.037C179.357 114.012 180.896 113.157 182.849 112.474C184.802 111.79 187.585 110.789 191.198 109.471C193.347 108.689 195.715 107.835 198.303 106.907C200.988 105.979 203.234 105.516 205.041 105.516H205.334ZM203.649 113.353H202.844C197.814 113.353 193.42 115.867 189.66 120.896C185.51 126.512 183.435 133.47 183.435 141.771C183.435 150.071 185.437 157.2 189.44 163.157C193.493 169.065 198.229 172.142 203.649 172.386H204.602C209.582 172.386 213.928 169.871 217.639 164.842C221.789 159.275 223.864 152.342 223.864 144.041C223.864 135.74 221.838 128.636 217.785 122.728C213.732 116.771 209.021 113.646 203.649 113.353Z" fill="#F5F5F5"/>
<path d="M253.104 132.996H260.17C261.107 132.996 261.928 132.604 262.631 131.818C263.346 131.033 263.896 130.406 264.283 129.938C264.588 129.574 264.875 129.393 265.145 129.393C265.684 129.393 265.953 129.633 265.953 130.113C265.953 130.289 265.936 130.436 265.9 130.553L264.547 135.352H248.094C247.555 135.352 247.285 135.111 247.285 134.631C247.285 134.186 247.578 133.863 248.164 133.664C248.75 133.453 249.043 133.043 249.043 132.434V112.904C249.043 112.307 248.75 111.902 248.164 111.691C247.578 111.48 247.285 111.146 247.285 110.689C247.285 110.209 247.555 109.969 248.094 109.969H254.053C254.58 109.969 254.844 110.209 254.844 110.689C254.844 111.146 254.551 111.48 253.965 111.691C253.379 111.902 253.086 112.307 253.086 112.904L253.104 132.996ZM284.289 132.434C284.289 133.043 284.581 133.453 285.167 133.664C285.753 133.863 286.046 134.186 286.046 134.631C286.046 135.111 285.777 135.352 285.238 135.352H280.966C280.474 135.352 280.228 135.158 280.228 134.771V134.191C280.005 134.273 279.642 134.414 279.138 134.613C278.634 134.801 278.16 134.971 277.714 135.123C276.601 135.498 275.453 135.744 274.269 135.861C274.081 135.873 273.906 135.879 273.742 135.879C272.652 135.879 271.626 135.521 270.665 134.807C269.142 133.646 268.38 131.221 268.38 127.529V121.184C268.38 120.598 268.087 120.199 267.501 119.988C266.915 119.777 266.622 119.443 266.622 118.986C266.622 118.506 266.886 118.266 267.414 118.266C268.14 118.23 268.867 118.113 269.593 117.914C270.331 117.715 271.281 117.422 272.441 117.035V127.529C272.441 130.025 272.939 131.754 273.935 132.715C274.533 133.301 275.253 133.594 276.097 133.594C276.601 133.594 277.169 133.488 277.802 133.277C278.025 133.207 278.335 133.096 278.734 132.943C279.132 132.791 279.466 132.662 279.736 132.557C279.806 132.533 279.906 132.498 280.035 132.451L280.228 132.381V121.184C280.228 120.598 279.935 120.199 279.349 119.988C278.763 119.777 278.47 119.443 278.47 118.986C278.47 118.506 278.734 118.266 279.261 118.266C279.988 118.23 280.714 118.113 281.441 117.914C282.179 117.715 283.128 117.422 284.289 117.035V132.434ZM302.677 119.725L291.884 133.26H298.704C299.173 133.236 299.583 133.061 299.934 132.732C300.298 132.393 300.725 131.877 301.218 131.186C301.604 130.67 301.921 130.412 302.167 130.412C302.671 130.412 302.923 130.635 302.923 131.08V133.857C302.923 134.549 302.794 134.971 302.536 135.123C302.29 135.275 301.704 135.352 300.778 135.352L288.737 135.369C287.835 135.357 287.22 135.299 286.891 135.193C286.552 135.111 286.382 134.924 286.382 134.631C286.382 134.432 286.499 134.191 286.733 133.91L297.421 120.217H292.024C291.556 120.217 291.157 120.387 290.829 120.727C290.513 121.055 290.114 121.559 289.634 122.238C289.247 122.742 288.931 122.994 288.684 122.994C288.169 122.994 287.911 122.777 287.911 122.344V119.549C287.911 118.916 288.052 118.506 288.333 118.318C288.614 118.131 289.194 118.037 290.073 118.037H301.007C302.343 118.037 303.011 118.342 303.011 118.951C303.011 119.186 302.899 119.443 302.677 119.725ZM313.156 121.043C312.992 120.668 312.752 120.375 312.435 120.164C312.166 119.988 311.849 119.83 311.486 119.689C311.123 119.537 310.894 119.332 310.801 119.074C310.754 118.969 310.73 118.875 310.73 118.793C310.73 118.453 310.953 118.283 311.398 118.283H317.164C317.597 118.283 317.89 118.465 318.043 118.828C318.09 118.91 318.113 118.998 318.113 119.092C318.113 119.361 317.943 119.578 317.603 119.742C317.439 119.824 317.322 119.965 317.252 120.164C317.228 120.234 317.217 120.316 317.217 120.41C317.217 120.516 317.246 120.627 317.304 120.744L321.488 130.975L325.109 122.291C325.203 122.08 325.25 121.875 325.25 121.676C325.25 121.336 325.109 121.002 324.828 120.674L324.054 119.742L325.883 118.318C326.023 118.166 326.193 118.09 326.392 118.09C326.615 118.09 326.82 118.184 327.008 118.371L327.992 119.373C328.25 119.643 328.379 119.971 328.379 120.357C328.379 120.557 328.338 120.785 328.256 121.043C328.068 121.605 327.787 122.268 327.412 123.029L318.728 142.4C318.365 143.174 318.043 143.824 317.761 144.352C317.398 144.984 316.906 145.301 316.285 145.301H316.215L314.773 145.248C314.293 145.166 314.052 144.938 314.052 144.562L313.929 142.225L315.265 142.189C315.863 142.166 316.291 141.896 316.549 141.381L319.291 135.686C319.326 135.686 319.344 135.674 319.344 135.65C319.344 135.604 319.302 135.533 319.22 135.439C319.15 135.369 319.086 135.246 319.027 135.07C318.969 134.906 318.927 134.795 318.904 134.736L313.156 121.043Z" fill="#F5F5F5"/>
<path d="M248.059 167.352C247.543 167.352 247.285 167.111 247.285 166.631C247.285 166.373 247.467 166.133 247.83 165.91C247.994 165.793 248.182 165.67 248.393 165.541C248.615 165.4 248.785 165.23 248.902 165.031C248.996 164.844 249.043 164.645 249.043 164.434V144.904C249.043 144.295 248.75 143.891 248.164 143.691C247.578 143.48 247.285 143.146 247.285 142.689C247.285 142.209 247.555 141.969 248.094 141.969H264.846V146.838C264.846 147.318 264.576 147.559 264.037 147.559C263.744 147.559 263.398 147.266 263 146.68C262.426 145.883 261.951 145.291 261.576 144.904C261.201 144.506 260.732 144.307 260.17 144.307H253.104V153.148H256.689C257.029 153.148 257.34 152.984 257.621 152.656C257.82 152.422 257.996 152.146 258.148 151.83C258.312 151.502 258.588 151.338 258.975 151.338C259.502 151.338 259.766 151.578 259.766 152.059V156.523C259.766 157.004 259.502 157.244 258.975 157.244C258.564 157.244 258.271 157.062 258.096 156.699C257.92 156.336 257.721 156.031 257.498 155.785C257.264 155.551 256.994 155.434 256.689 155.434H253.104V164.434C253.104 164.715 253.162 164.949 253.279 165.137C253.396 165.301 253.543 165.441 253.719 165.559C253.906 165.676 254.088 165.787 254.264 165.893C254.65 166.127 254.844 166.373 254.844 166.631C254.844 166.725 254.832 166.818 254.809 166.912C254.633 167.205 254.381 167.352 254.053 167.352H248.059ZM282.32 164.434C282.32 165.043 282.613 165.453 283.199 165.664C283.785 165.863 284.078 166.186 284.078 166.631C284.078 167.111 283.808 167.352 283.269 167.352H278.997C278.505 167.352 278.259 167.158 278.259 166.771V166.191C278.037 166.273 277.673 166.414 277.169 166.613C276.665 166.801 276.191 166.971 275.746 167.123C274.632 167.498 273.484 167.744 272.3 167.861C272.113 167.873 271.937 167.879 271.773 167.879C270.683 167.879 269.658 167.521 268.697 166.807C267.173 165.646 266.412 163.221 266.412 159.529V153.184C266.412 152.598 266.119 152.199 265.533 151.988C264.947 151.777 264.654 151.443 264.654 150.986C264.654 150.506 264.917 150.266 265.445 150.266C266.171 150.23 266.898 150.113 267.624 149.914C268.363 149.715 269.312 149.422 270.472 149.035V159.529C270.472 162.025 270.97 163.754 271.966 164.715C272.564 165.301 273.285 165.594 274.128 165.594C274.632 165.594 275.201 165.488 275.833 165.277C276.056 165.207 276.367 165.096 276.765 164.943C277.164 164.791 277.497 164.662 277.767 164.557C277.837 164.533 277.937 164.498 278.066 164.451L278.259 164.381V153.184C278.259 152.598 277.966 152.199 277.38 151.988C276.794 151.777 276.501 151.443 276.501 150.986C276.501 150.506 276.765 150.266 277.292 150.266C278.019 150.23 278.746 150.113 279.472 149.914C280.21 149.715 281.16 149.422 282.32 149.035V164.434ZM284.835 157.244C285.175 155.006 286.083 153.201 287.559 151.83C289.036 150.459 290.981 149.762 293.395 149.738H293.466C295.915 149.738 297.796 150.441 299.108 151.848C300.386 153.254 301.024 155.064 301.024 157.279C301.013 157.76 300.989 158.152 300.954 158.457C300.919 158.762 300.538 158.914 299.811 158.914H289.054C289.089 160.52 289.54 161.914 290.407 163.098C291.286 164.27 292.37 164.984 293.659 165.242C294.034 165.324 294.415 165.365 294.802 165.365C295.833 165.365 296.905 165.061 298.018 164.451C298.768 164.053 299.302 163.854 299.618 163.854C299.782 163.854 299.934 163.9 300.075 163.994C300.192 164.111 300.251 164.246 300.251 164.398C300.251 164.598 300.163 164.855 299.987 165.172C299.835 165.488 299.706 165.699 299.6 165.805C299.507 165.91 299.419 166.004 299.337 166.086C297.966 167.27 296.12 167.861 293.8 167.861C290.565 167.838 288.145 166.807 286.54 164.768C285.298 163.197 284.677 161.346 284.677 159.213C284.677 158.58 284.729 157.924 284.835 157.244ZM289.071 156.928H297.438C297.438 155.779 297.128 154.631 296.507 153.482C295.968 152.486 294.966 151.988 293.501 151.988H293.307C291.843 152.035 290.776 152.592 290.108 153.658C289.452 154.713 289.106 155.803 289.071 156.928ZM307.688 156.541V164.434C307.688 165.043 307.975 165.453 308.549 165.664C309.135 165.863 309.428 166.186 309.428 166.631C309.428 167.111 309.164 167.352 308.637 167.352H302.678C302.139 167.352 301.869 167.111 301.869 166.631C301.869 166.186 302.162 165.863 302.748 165.664C303.334 165.453 303.627 165.043 303.627 164.434V153.184C303.627 152.598 303.334 152.199 302.748 151.988C302.162 151.777 301.869 151.443 301.869 150.986C301.869 150.506 302.133 150.266 302.66 150.266C303.387 150.23 304.114 150.113 304.84 149.914C305.578 149.715 306.528 149.422 307.688 149.035V151.32L309.516 150.635C310.418 150.295 311.127 150.037 311.643 149.861C311.854 149.803 312.088 149.773 312.346 149.773C312.838 149.773 313.541 149.932 314.455 150.248L314.016 155.24H312.451C311.994 153.529 311.233 152.674 310.166 152.674C310.049 152.674 309.938 152.68 309.832 152.691C309.118 152.773 308.59 153.178 308.25 153.904C307.91 154.619 307.723 155.498 307.688 156.541ZM330.101 151.725L319.308 165.26H326.129C326.597 165.236 327.008 165.061 327.359 164.732C327.722 164.393 328.15 163.877 328.642 163.186C329.029 162.67 329.345 162.412 329.592 162.412C330.095 162.412 330.347 162.635 330.347 163.08V165.857C330.347 166.549 330.219 166.971 329.961 167.123C329.715 167.275 329.129 167.352 328.203 167.352L316.162 167.369C315.26 167.357 314.644 167.299 314.316 167.193C313.976 167.111 313.806 166.924 313.806 166.631C313.806 166.432 313.924 166.191 314.158 165.91L324.845 152.217H319.449C318.98 152.217 318.582 152.387 318.254 152.727C317.937 153.055 317.539 153.559 317.058 154.238C316.672 154.742 316.355 154.994 316.109 154.994C315.594 154.994 315.336 154.777 315.336 154.344V151.549C315.336 150.916 315.476 150.506 315.758 150.318C316.039 150.131 316.619 150.037 317.498 150.037H328.431C329.767 150.037 330.435 150.342 330.435 150.951C330.435 151.186 330.324 151.443 330.101 151.725ZM343.409 166.016L339.191 167.562C338.757 167.715 338.388 167.791 338.083 167.791H337.345C335.54 167.697 334.005 166.982 332.739 165.646C331.462 164.287 330.736 162.641 330.56 160.707C330.513 160.215 330.489 159.734 330.489 159.266C330.489 158.645 330.53 158.041 330.613 157.455C330.765 156.412 331.169 155.375 331.825 154.344C332.142 153.793 332.693 153.219 333.478 152.621C333.771 152.422 334.093 152.246 334.445 152.094C335.394 151.742 336.337 151.391 337.275 151.039C338.224 150.688 339.173 150.336 340.122 149.984C340.38 149.891 340.626 149.844 340.861 149.844H340.966C341.763 149.879 342.724 150.078 343.849 150.441C343.966 150.477 344.036 150.506 344.06 150.529C344.294 150.623 344.593 150.729 344.956 150.846C345.05 150.881 345.138 150.898 345.22 150.898C345.29 150.898 345.349 150.881 345.396 150.846C345.618 150.658 345.771 150.506 345.853 150.389C346.005 150.189 346.21 150.09 346.468 150.09C346.597 150.09 346.714 150.113 346.82 150.16C347.253 150.312 347.47 150.535 347.47 150.828V164.434C347.47 165.043 347.763 165.453 348.349 165.664C348.935 165.863 349.228 166.186 349.228 166.631C349.228 167.111 348.958 167.352 348.419 167.352H344.148C343.655 167.352 343.409 167.158 343.409 166.771V166.016ZM343.409 153.605C343.034 153.254 342.478 152.902 341.739 152.551C341.013 152.199 340.38 152.012 339.841 151.988H339.788C339.624 151.988 339.448 152.023 339.261 152.094C338.839 152.246 338.417 152.404 337.995 152.568C337.585 152.721 337.169 152.873 336.747 153.025C336.525 153.119 336.349 153.236 336.22 153.377C335.54 154.104 335.083 154.988 334.849 156.031C334.65 156.852 334.55 157.66 334.55 158.457C334.55 158.703 334.562 158.961 334.585 159.23C334.714 160.859 335.154 162.178 335.904 163.186C336.63 164.205 337.532 164.861 338.611 165.154C339.009 165.271 339.413 165.33 339.823 165.33C339.952 165.33 340.081 165.324 340.21 165.312C340.421 165.289 340.685 165.225 341.001 165.119C341.271 165.025 341.693 164.873 342.267 164.662C342.841 164.439 343.222 164.293 343.409 164.223V153.605Z" fill="#F5F5F5"/>
</svg>
